<svg width="46" height="56" viewBox="0 0 46 56" fill="none" xmlns="http://www.w3.org/2000/svg">
<path d="M23.0599 16.055C20.8699 16.055 17.4799 13.565 13.9099 13.655C9.19991 13.715 4.87991 16.385 2.44991 20.615C-2.44009 29.105 1.18991 41.645 5.95991 48.545C8.29991 51.905 11.0599 55.685 14.7199 55.565C18.2299 55.415 19.5499 53.285 23.8099 53.285C28.0399 53.285 29.2399 55.565 32.9599 55.475C36.7399 55.415 39.1399 52.055 41.4499 48.665C44.1199 44.765 45.2299 40.985 45.2899 40.775C45.1999 40.745 37.9399 37.955 37.8499 29.555C37.7899 22.535 43.5799 19.175 43.8499 19.025C40.5499 14.195 35.4799 13.655 33.7099 13.535C29.0899 13.175 25.2199 16.055 23.0599 16.055ZM30.8599 8.975C32.8099 6.635 34.0999 3.365 33.7399 0.125C30.9499 0.245 27.5899 1.985 25.5799 4.325C23.7799 6.395 22.2199 9.725 22.6399 12.905C25.7299 13.145 28.9099 11.315 30.8599 8.975Z" fill="white"/>
</svg>
