<svg width="70" height="70" viewBox="0 0 70 70" fill="none" xmlns="http://www.w3.org/2000/svg">
<path d="M62.0374 26.7747C61.1916 25.4331 60.2874 24.1789 59.3541 23.0122C58.2749 21.6414 56.2332 21.5247 55.0082 22.7497L46.2582 31.4997C46.8999 33.4247 47.0166 35.6414 46.4332 37.9456C45.4124 42.0581 42.0874 45.3831 37.9749 46.4039C35.6707 46.9872 33.4541 46.8706 31.5291 46.2289C31.5291 46.2289 27.3582 50.3997 24.3541 53.4039C22.8957 54.8622 23.3624 57.4289 25.3166 58.1872C28.4374 59.3831 31.6749 59.9956 34.9999 59.9956C40.1916 59.9956 45.2374 58.4789 49.8457 55.6497C54.5416 52.7331 58.7707 48.4456 62.1832 42.9914C64.9541 38.5872 64.8082 31.1789 62.0374 26.7747Z" />
<path d="M40.8915 29.1082L29.1082 40.8915C27.6207 39.3749 26.6582 37.2749 26.6582 34.9999C26.6582 30.4207 30.3915 26.6582 34.9999 26.6582C37.2749 26.6582 39.3749 27.6207 40.8915 29.1082Z" />
<path d="M53.2293 16.7706L43.3418 26.6581C41.2127 24.4997 38.2668 23.2164 35.0002 23.2164C28.4668 23.2164 23.2168 28.4956 23.2168 34.9997C23.2168 38.2664 24.5293 41.2122 26.6585 43.3414L16.8002 53.2289H16.771C13.5335 50.6039 10.5585 47.2497 8.021 43.2831C5.10433 38.7039 5.10433 31.2664 8.021 26.6872C11.4043 21.3789 15.546 17.2081 20.1543 14.3497C24.7627 11.5497 29.8085 10.0039 35.0002 10.0039C41.5043 10.0039 47.8043 12.3956 53.2293 16.7706Z" />
<path d="M43.3419 34.9997C43.3419 39.5789 39.6086 43.3414 35.0002 43.3414C34.8252 43.3414 34.6794 43.3414 34.5044 43.2831L43.2836 34.5039C43.3419 34.6789 43.3419 34.8247 43.3419 34.9997Z" />
<path d="M63.4927 6.50098C62.6177 5.62598 61.1885 5.62598 60.3135 6.50098L6.50098 60.3426C5.62598 61.2176 5.62598 62.6468 6.50098 63.5218C6.93848 63.9301 7.49264 64.1635 8.07598 64.1635C8.65931 64.1635 9.21348 63.9301 9.65098 63.4926L63.4927 9.65098C64.3968 8.77598 64.3968 7.37598 63.4927 6.50098Z" />
</svg>
