<svg width="80" height="80" viewBox="0 0 80 80" fill="none" xmlns="http://www.w3.org/2000/svg">
<g clip-path="url(#clip0_5_150)">
<path d="M56.6667 43.3337V46.667C56.6667 55.9004 54.4534 64.817 50.2834 72.8204L49.5267 74.2204L43.7034 70.9737C47.5701 64.0404 49.7367 56.2737 49.9767 48.187L50.0001 46.667V43.3337H56.6667ZM36.6667 33.3337H43.3334V46.667L43.3167 47.9304C43.0648 57.056 39.9241 65.8664 34.3467 73.0937L33.5767 74.0604L28.4101 69.847C33.498 63.6332 36.3933 55.9141 36.6467 47.887L36.6667 46.667V33.3337ZM40.0001 20.0004C44.4204 20.0004 48.6596 21.7563 51.7852 24.8819C54.9108 28.0075 56.6667 32.2467 56.6667 36.667H50.0001C50.0001 34.0149 48.9465 31.4713 47.0711 29.596C45.1958 27.7206 42.6522 26.667 40.0001 26.667C37.3479 26.667 34.8044 27.7206 32.929 29.596C31.0536 31.4713 30.0001 34.0149 30.0001 36.667V46.667C30.0001 54.117 27.2667 61.147 22.4301 66.5904L21.7234 67.357L16.8967 62.757C20.7966 58.6768 23.0775 53.3163 23.3134 47.677L23.3334 46.667V36.667C23.3334 32.2467 25.0894 28.0075 28.215 24.8819C31.3406 21.7563 35.5798 20.0004 40.0001 20.0004ZM40.0001 6.66703C47.9566 6.66703 55.5872 9.82773 61.2133 15.4538C66.8394 21.0799 70.0001 28.7105 70.0001 36.667V46.667C70.0001 52.327 69.3267 57.9004 68.0101 63.3004L67.5467 65.097L61.1134 63.3437C62.4201 58.5537 63.1567 53.6037 63.3068 48.5604L63.3334 46.667V36.667C63.3334 32.3366 62.1283 28.0916 59.853 24.407C57.5777 20.7225 54.3219 17.7439 50.45 15.8045C46.5781 13.8651 42.2429 13.0414 37.9295 13.4257C33.6161 13.81 29.4948 15.387 26.0267 17.9804L21.2767 13.227C26.5883 8.97129 33.1939 6.65693 40.0001 6.66703ZM16.5601 17.9437L21.3134 22.6937C18.4545 26.5044 16.8369 31.1023 16.6801 35.8637L16.6667 36.667L16.6801 43.3337C16.6801 47.067 15.8001 50.677 14.1401 53.9237L13.6201 54.8904L7.83008 51.5837C9.09674 49.367 9.83674 46.8937 9.98341 44.307L10.0134 43.3337V36.667C9.99364 29.8615 12.3039 23.2542 16.5601 17.9437Z" fill="white"/>
</g>
<defs>
<clipPath id="clip0_5_150">
<rect width="80" height="80" fill="white"/>
</clipPath>
</defs>
</svg>
