<svg width="80" height="80" viewBox="0 0 80 80" fill="none" xmlns="http://www.w3.org/2000/svg">
<path d="M40 25.833C33.7 25.833 32.5 28.4663 32.5 33.333V35.3997H47.5V33.333C47.5 28.4663 46.3 25.833 40 25.833Z" fill="white"/>
<path d="M40.0002 50.3333C42.0252 50.3333 43.6668 48.6917 43.6668 46.6667C43.6668 44.6416 42.0252 43 40.0002 43C37.9751 43 36.3335 44.6416 36.3335 46.6667C36.3335 48.6917 37.9751 50.3333 40.0002 50.3333Z" fill="white"/>
<path d="M39.9998 6.66699C21.5998 6.66699 6.6665 21.6003 6.6665 40.0003C6.6665 58.4003 21.5998 73.3337 39.9998 73.3337C58.3998 73.3337 73.3332 58.4003 73.3332 40.0003C73.3332 21.6003 58.3998 6.66699 39.9998 6.66699ZM57.9332 48.3337C57.9332 55.667 55.6665 57.9337 48.3332 57.9337H31.6665C24.3332 57.9337 22.0665 55.667 22.0665 48.3337V45.0003C22.0665 39.3003 23.4332 36.667 27.4998 35.767V33.3337C27.4998 30.2337 27.4998 20.8337 39.9998 20.8337C52.4998 20.8337 52.4998 30.2337 52.4998 33.3337V35.767C56.5665 36.667 57.9332 39.3003 57.9332 45.0003V48.3337Z" fill="white"/>
</svg>
