<svg width="80" height="80" viewBox="0 0 80 80" fill="none" xmlns="http://www.w3.org/2000/svg">
<path d="M40 57.8335C43.0007 57.8335 45.4333 55.4009 45.4333 52.4001C45.4333 49.3994 43.0007 46.9668 40 46.9668C36.9992 46.9668 34.5667 49.3994 34.5667 52.4001C34.5667 55.4009 36.9992 57.8335 40 57.8335Z" />
<path d="M60.9334 31.767V27.6003C60.9334 18.6003 58.7667 6.66699 40 6.66699C21.2334 6.66699 19.0667 18.6003 19.0667 27.6003V31.767C9.73341 32.9336 6.66675 37.667 6.66675 49.3003V55.5003C6.66675 69.1669 10.8334 73.3336 24.5001 73.3336H55.5C69.1667 73.3336 73.3333 69.1669 73.3333 55.5003V49.3003C73.3333 37.667 70.2667 32.9336 60.9334 31.767ZM40 62.4669C34.4334 62.4669 29.9334 57.9336 29.9334 52.4003C29.9334 46.8336 34.4667 42.3336 40 42.3336C45.5334 42.3336 50.0667 46.867 50.0667 52.4003C50.0667 57.9669 45.5667 62.4669 40 62.4669ZM24.5001 31.467C24.2334 31.467 24.0001 31.467 23.7334 31.467V27.6003C23.7334 17.8336 26.5001 11.3337 40 11.3337C53.5 11.3337 56.2667 17.8336 56.2667 27.6003V31.5003C56 31.5003 55.7667 31.5003 55.5 31.5003H24.5001V31.467Z" />
</svg>
