<svg width="80" height="80" viewBox="0 0 80 80"  xmlns="http://www.w3.org/2000/svg">
<path d="M62.2999 38.4337C60.3999 37.9337 58.1666 37.667 55.4999 37.667C51.7999 37.667 50.4333 38.567 48.5333 40.0003C48.4333 40.067 48.3333 40.167 48.2333 40.267L45.0666 43.6337C42.4333 46.467 37.5999 46.467 34.9333 43.6337L31.7666 40.3003C31.6666 40.167 31.5666 40.067 31.4666 40.0003C29.5333 38.567 28.1666 37.667 24.4999 37.667C21.8333 37.667 19.5999 37.9003 17.6999 38.4337C9.7666 40.567 9.7666 46.867 9.7666 52.4003V55.5003C9.7666 63.867 9.7666 73.3337 27.5999 73.3337H52.3999C64.2333 73.3337 70.2333 67.3337 70.2333 55.5003V52.4003C70.2333 46.867 70.2333 40.567 62.2999 38.4337Z" />
<path d="M49.2999 6.66699H30.6999C15.9666 6.66699 15.9666 14.5003 15.9666 21.4003V33.7337C16.0999 33.667 16.2666 33.6337 16.3999 33.6003C18.7332 32.967 21.3666 32.667 24.4999 32.667C29.6332 32.667 32.0666 34.167 34.4666 36.0003C34.7999 36.2337 35.1332 36.5337 35.4332 36.867L38.5665 40.167C38.8999 40.5337 39.4332 40.7337 39.9999 40.7337C40.5666 40.7337 41.0999 40.5337 41.3999 40.2003L44.5999 36.8337C44.8666 36.567 45.1665 36.267 45.4999 36.0337C47.9665 34.167 50.3665 32.667 55.4999 32.667C58.6332 32.667 61.2665 32.967 63.5999 33.6003C63.7332 33.6337 63.8999 33.667 64.0332 33.7337V21.4003C64.0332 14.5003 64.0332 6.66699 49.2999 6.66699ZM45.1666 28.3337H34.8332C33.5666 28.3337 32.4999 27.267 32.4999 26.0003C32.4999 24.7003 33.5666 23.667 34.8332 23.667H45.1666C46.4332 23.667 47.4999 24.7003 47.4999 26.0003C47.4999 27.267 46.4332 28.3337 45.1666 28.3337ZM47.7666 19.0337H32.2332C30.9666 19.0337 29.9332 17.967 29.9332 16.7003C29.9332 15.4003 30.9666 14.367 32.2332 14.367H47.7666C49.0332 14.367 50.0666 15.4003 50.0666 16.7003C50.0666 17.967 49.0332 19.0337 47.7666 19.0337Z" />
</svg>
