<svg width="80" height="80" viewBox="0 0 80 80" fill="none" xmlns="http://www.w3.org/2000/svg">
<path d="M61.6667 13.6997L45.0334 7.46641C42.2667 6.43307 37.7334 6.43307 34.9667 7.46641L18.3334 13.6997C14.5 15.1331 11.3667 19.6664 11.3667 23.7331V48.4997C11.3667 52.4331 13.9667 57.5997 17.1334 59.9664L31.4667 70.6664C36.1667 74.1997 43.9 74.1997 48.6 70.6664L62.9334 59.9664C66.1 57.5997 68.7 52.4331 68.7 48.4997V23.7331C68.6334 19.6664 65.5 15.1331 61.6667 13.6997ZM39.7667 23.4331C43.7 23.4331 46.9 26.6331 46.9 30.5664C46.9 34.4331 43.8667 37.5331 40.0334 37.6664H39.9667H39.9C39.8334 37.6664 39.7667 37.6664 39.7 37.6664C35.7 37.5331 32.7 34.4331 32.7 30.5664C32.6667 26.6331 35.8667 23.4331 39.7667 23.4331ZM47.3 54.5331C45.2667 55.8664 42.6334 56.5664 40 56.5664C37.3667 56.5664 34.7 55.8997 32.7 54.5331C30.8 53.2664 29.7667 51.5331 29.7334 49.6331C29.7334 47.7664 30.8 45.9664 32.7 44.6997C36.7334 42.0331 43.3 42.0331 47.3334 44.6997C49.2334 45.9664 50.3 47.6997 50.3 49.5997C50.2667 51.4664 49.2 53.2664 47.3 54.5331Z" />
</svg>
